<!-- extract-icon.svg - conteúdo de exemplo -->
<svg xmlns="http://www.w3.org/2000/svg" width="64" height="64" viewBox="0 0 24 24" fill="none" stroke="#e53935" stroke-width="1.5" stroke-linecap="round" stroke-linejoin="round">
    <path d="M20 10v10a2 2 0 0 1-2 2H6a2 2 0 0 1-2-2V4a2 2 0 0 1 2-2h8"></path>
    <path d="M4 18h2"></path>
    <path d="M4 14h4"></path>
    <path d="M4 10h5"></path>
    <path d="M14.5 2.5l5 5"></path>
    <path d="M15 2H9a2 2 0 0 0-2 2v2"></path>
    <path d="M19.5 7.5V3a1 1 0 0 0-1-1h-2"></path>
    <path d="M15 8h4a1 1 0 0 0 1-1V3"></path>
</svg>