<svg xmlns="http://www.w3.org/2000/svg" width="64" height="64" viewBox="0 0 24 24" fill="none" stroke="#e53935" stroke-width="1.5" stroke-linecap="round" stroke-linejoin="round">
    <path d="M4 22h14a2 2 0 0 0 2-2V7.5L14.5 2H6a2 2 0 0 0-2 2v4"></path>
    <polyline points="14 2 14 8 20 8"></polyline>
    <path d="M3 11.5v-5a2 2 0 0 1 2-2h2"></path>
    <path d="M11.5 21H6.5a2 2 0 0 1-2-2v-2.5"></path>
    <circle cx="6.5" cy="16.5" r="1.5"></circle>
    <path d="m4 14 2-2 1 1"></path>
    <path d="m14 12 2-2h3"></path>
</svg>